solid Matchlock
facet normal 0.8155608689592592 6.439327954571474e-13 0.5786712961798072
  outer loop
    vertex 183.68120879015333 78.45962515542192 6.400001520904366
    vertex 183.56115726413208 103.81062710938973 6.569198312788214
    vertex 183.56115726414686 78.45962515542185 6.569198312789635
  endloop
endfacet
facet normal 0.8155608689592592 6.439327954571474e-13 0.5786712961798072
  outer loop
    vertex 183.56115726413208 103.81062710938973 6.569198312788214
    vertex 183.68120879015333 78.45962515542192 6.400001520904366
    vertex 183.68120879013844 103.8106271093898 6.400001520902962
  endloop
endfacet
facet normal -0.16750622330471016 1.8192324845246668e-13 0.9858710185182404
  outer loop
    vertex 185.3347313135104 78.45962515542269 5.715090066040501
    vertex 185.5392607605237 103.81062710939074 5.749841016805192
    vertex 185.33473131349547 103.81062710939057 5.715090066039129
  endloop
endfacet
facet normal -0.16750622330471016 1.8192324845246668e-13 0.9858710185182404
  outer loop
    vertex 185.5392607605237 103.81062710939074 5.749841016805192
    vertex 185.3347313135104 78.45962515542269 5.715090066040501
    vertex 185.53926076053853 78.45962515542287 5.7498410168066005
  endloop
endfacet
facet normal -0.8752234219088018 -3.7686068961434106e-13 0.4837188871051528
  outer loop
    vertex 186.79438943833864 78.45962515542378 6.750772736975581
    vertex 186.6940368012767 103.81062710939158 6.5691983127882985
    vertex 186.69403680129156 78.4596251554237 6.569198312789655
  endloop
endfacet
facet normal -0.8752234219088018 -3.7686068961434106e-13 0.4837188871051528
  outer loop
    vertex 186.6940368012767 103.81062710939158 6.5691983127882985
    vertex 186.79438943833864 78.45962515542378 6.750772736975581
    vertex 186.79438943832378 103.81062710939167 6.750772736974182
  endloop
endfacet
facet normal 0.8752234219087506 6.519964353868228e-13 0.4837188871052453
  outer loop
    vertex 183.56115726414686 78.45962515542185 6.569198312789635
    vertex 183.46080462708488 103.81062710938966 6.750772736974114
    vertex 183.46080462709972 78.45962515542179 6.750772736975535
  endloop
endfacet
facet normal 0.8752234219087506 6.519964353868228e-13 0.4837188871052453
  outer loop
    vertex 183.46080462708488 103.81062710938966 6.750772736974114
    vertex 183.56115726414686 78.45962515542185 6.569198312789635
    vertex 183.56115726413208 103.81062710938973 6.569198312788214
  endloop
endfacet
facet normal 0.9238795325112812 6.518608418443666e-13 0.3826834323651031
  outer loop
    vertex 183.46080462708488 103.81062710938966 6.750772736974114
    vertex 183.38141287164873 78.45962515542182 6.942441389725918
    vertex 183.46080462709972 78.45962515542179 6.750772736975535
  endloop
endfacet
facet normal 0.9238795325112812 6.518608418443666e-13 0.3826834323651031
  outer loop
    vertex 183.38141287164873 78.45962515542182 6.942441389725918
    vertex 183.46080462708488 103.81062710938966 6.750772736974114
    vertex 183.38141287163384 103.8106271093897 6.942441389724553
  endloop
endfacet
facet normal -0.056070447237204384 2.5099248488183305e-13 0.998426815017816
  outer loop
    vertex 185.12759703271917 78.45962515542256 5.7034576543430155
    vertex 185.33473131349547 103.81062710939057 5.715090066039129
    vertex 185.1275970327044 103.81062710939042 5.70345765434161
  endloop
endfacet
facet normal -0.056070447237204384 2.5099248488183305e-13 0.998426815017816
  outer loop
    vertex 185.33473131349547 103.81062710939057 5.715090066039129
    vertex 185.12759703271917 78.45962515542256 5.7034576543430155
    vertex 185.3347313135104 78.45962515542269 5.715090066040501
  endloop
endfacet
facet normal -0.8155608689592287 -3.1478881767203653e-13 0.5786712961798502
  outer loop
    vertex 186.69403680129156 78.4596251554237 6.569198312789655
    vertex 186.57398527527027 103.81062710939145 6.400001520902993
    vertex 186.57398527528505 78.45962515542355 6.400001520904366
  endloop
endfacet
facet normal -0.8155608689592287 -3.1478881767203653e-13 0.5786712961798502
  outer loop
    vertex 186.57398527527027 103.81062710939145 6.400001520902993
    vertex 186.69403680129156 78.4596251554237 6.569198312789655
    vertex 186.6940368012767 103.81062710939158 6.5691983127882985
  endloop
endfacet
facet normal 0.6663465779519937 6.037152698765146e-13 0.7456421648831749
  outer loop
    vertex 183.81944948752422 78.45962515542192 6.245310109147849
    vertex 183.97414089926576 103.81062710938988 6.107069411775716
    vertex 183.81944948750936 103.8106271093898 6.245310109146454
  endloop
endfacet
facet normal 0.6663465779519937 6.037152698765146e-13 0.7456421648831749
  outer loop
    vertex 183.97414089926576 103.81062710938988 6.107069411775716
    vertex 183.81944948752422 78.45962515542192 6.245310109147849
    vertex 183.97414089928063 78.459625155422 6.1070694117771165
  endloop
endfacet
facet normal 0.6663465779520001 1.7959948985748183e-13 -0.745642164883169
  outer loop
    vertex 183.9741408992656 103.81062710939064 8.999845896907527
    vertex 183.81944948752417 78.45962515542269 8.861605199538115
    vertex 183.81944948750913 103.81062710939057 8.861605199536774
  endloop
endfacet
facet normal 0.6663465779520001 1.7959948985748183e-13 -0.745642164883169
  outer loop
    vertex 183.81944948752417 78.45962515542269 8.861605199538115
    vertex 183.9741408992656 103.81062710939064 8.999845896907527
    vertex 183.9741408992805 78.45962515542274 8.999845896908852
  endloop
endfacet
facet normal 0.16750622330471016 -1.8192324845246668e-13 -0.9858710185182404
  outer loop
    vertex 184.92046275191316 103.8106271093913 9.391825242644167
    vertex 184.71593330489995 78.45962515542331 9.357074291879396
    vertex 184.71593330488506 103.81062710939119 9.357074291878043
  endloop
endfacet
facet normal 0.16750622330471016 -1.8192324845246668e-13 -0.9858710185182404
  outer loop
    vertex 184.71593330489995 78.45962515542331 9.357074291879396
    vertex 184.92046275191316 103.8106271093913 9.391825242644167
    vertex 184.92046275192808 78.45962515542344 9.39182524264551
  endloop
endfacet
facet normal -0.7456421648831576 -6.277713270060858e-13 -0.666346577952013
  outer loop
    vertex 186.4357445778995 103.81062710939216 8.861605199536791
    vertex 186.57398527528508 78.45962515542428 8.70691378778167
    vertex 186.4357445779144 78.45962515542428 8.861605199538168
  endloop
endfacet
facet normal -0.7456421648831576 -6.277713270060858e-13 -0.666346577952013
  outer loop
    vertex 186.57398527528508 78.45962515542428 8.70691378778167
    vertex 186.4357445778995 103.81062710939216 8.861605199536791
    vertex 186.57398527527022 103.81062710939216 8.706913787780323
  endloop
endfacet
facet normal -0.9238795325112722 -4.3419331972492397e-13 0.3826834323651249
  outer loop
    vertex 186.8737811937897 78.4596251554239 6.942441389725988
    vertex 186.79438943832378 103.81062710939167 6.750772736974182
    vertex 186.79438943833864 78.45962515542378 6.750772736975581
  endloop
endfacet
facet normal -0.9238795325112722 -4.3419331972492397e-13 0.3826834323651249
  outer loop
    vertex 186.79438943832378 103.81062710939167 6.750772736974182
    vertex 186.8737811937897 78.4596251554239 6.942441389725988
    vertex 186.87378119377487 103.81062710939176 6.9424413897245865
  endloop
endfacet
facet normal -0.9999978744856327 -2.403841804659466e-13 -0.0020618012068898627
  outer loop
    vertex 181.72622684062114 78.45962515541889 10.370740250318452
    vertex 181.73795109757876 103.81062710938363 4.68433750344217
    vertex 181.73795109758757 78.45962515541848 4.684337503438532
  endloop
endfacet
facet normal -0.9999978744856327 -2.403841804659466e-13 -0.0020618012068898627
  outer loop
    vertex 181.73795109757876 103.81062710938363 4.68433750344217
    vertex 181.72622684062114 78.45962515541889 10.370740250318452
    vertex 181.72622684061227 103.81062710938404 10.370740250322175
  endloop
endfacet
facet normal -0.27683551142497054 1.1056622161936145e-13 0.9609173219450647
  outer loop
    vertex 185.53926076053853 78.45962515542287 5.7498410168066005
    vertex 185.73861329732148 103.81062710939088 5.807273493271129
    vertex 185.5392607605237 103.81062710939074 5.749841016805192
  endloop
endfacet
facet normal -0.27683551142497054 1.1056622161936145e-13 0.9609173219450647
  outer loop
    vertex 185.73861329732148 103.81062710939088 5.807273493271129
    vertex 185.53926076053853 78.45962515542287 5.7498410168066005
    vertex 185.73861329733634 78.45962515542301 5.807273493272516
  endloop
endfacet
facet normal 0.3826834323651274 -3.7818760397528056e-14 -0.9238795325112712
  outer loop
    vertex 184.51658076808724 103.81062710939102 9.299641815412105
    vertex 184.32491211535168 78.459625155423 9.22025005996247
    vertex 184.32491211533687 103.81062710939088 9.220250059961115
  endloop
endfacet
facet normal 0.3826834323651274 -3.7818760397528056e-14 -0.9238795325112712
  outer loop
    vertex 184.32491211535168 78.459625155423 9.22025005996247
    vertex 184.51658076808724 103.81062710939102 9.299641815412105
    vertex 184.51658076810222 78.45962515542313 9.299641815413473
  endloop
endfacet
facet normal -0.48371888710515587 -3.5404293679226187e-14 0.8752234219088001
  outer loop
    vertex 185.9302819500868 78.45962515542303 5.886665248723529
    vertex 186.11185637425777 103.81062710939099 5.987017885769306
    vertex 185.93028195007187 103.81062710939091 5.886665248722142
  endloop
endfacet
facet normal -0.48371888710515587 -3.5404293679226187e-14 0.8752234219088001
  outer loop
    vertex 186.11185637425777 103.81062710939099 5.987017885769306
    vertex 185.9302819500868 78.45962515542303 5.886665248723529
    vertex 186.11185637427263 78.45962515542313 5.987017885770712
  endloop
endfacet
facet normal 0.7456421648831685 2.48758293702898e-13 -0.6663465779520007
  outer loop
    vertex 183.6812087901385 103.81062710939041 8.706913787780286
    vertex 183.81944948752417 78.45962515542269 8.861605199538115
    vertex 183.68120879015333 78.45962515542253 8.706913787781648
  endloop
endfacet
facet normal 0.7456421648831685 2.48758293702898e-13 -0.6663465779520007
  outer loop
    vertex 183.81944948752417 78.45962515542269 8.861605199538115
    vertex 183.6812087901385 103.81062710939041 8.706913787780286
    vertex 183.81944948750913 103.81062710939057 8.861605199536774
  endloop
endfacet
facet normal 0.9609173219450933 6.435277199972481e-13 0.27683551142487106
  outer loop
    vertex 183.38141287163384 103.8106271093897 6.942441389724553
    vertex 183.32398039518282 78.45962515542182 7.14179392652377
    vertex 183.38141287164873 78.45962515542182 6.942441389725918
  endloop
endfacet
facet normal 0.9609173219450933 6.435277199972481e-13 0.27683551142487106
  outer loop
    vertex 183.32398039518282 78.45962515542182 7.14179392652377
    vertex 183.38141287163384 103.8106271093897 6.942441389724553
    vertex 183.32398039516792 103.8106271093897 7.141793926522422
  endloop
endfacet
facet normal -0.960917321945119 -4.86065716915255e-13 0.27683551142478213
  outer loop
    vertex 186.93121367025566 78.45962515542394 7.141793926523855
    vertex 186.87378119377487 103.81062710939176 6.9424413897245865
    vertex 186.8737811937897 78.4596251554239 6.942441389725988
  endloop
endfacet
facet normal -0.960917321945119 -4.86065716915255e-13 0.27683551142478213
  outer loop
    vertex 186.87378119377487 103.81062710939176 6.9424413897245865
    vertex 186.93121367025566 78.45962515542394 7.141793926523855
    vertex 186.93121367024082 103.8106271093918 7.141793926522451
  endloop
endfacet
facet normal -0.5786712961798509 -1.0818211822110101e-13 0.8155608689592282
  outer loop
    vertex 186.11185637427263 78.45962515542313 5.987017885770712
    vertex 186.28105316614295 103.81062710939115 6.107069411775821
    vertex 186.11185637425777 103.81062710939099 5.987017885769306
  endloop
endfacet
facet normal -0.5786712961798509 -1.0818211822110101e-13 0.8155608689592282
  outer loop
    vertex 186.28105316614295 103.81062710939115 6.107069411775821
    vertex 186.11185637427263 78.45962515542313 5.987017885770712
    vertex 186.281053166158 78.45962515542328 6.107069411777128
  endloop
endfacet
facet normal -0.5786712961797976 -5.720671429444898e-13 -0.8155608689592659
  outer loop
    vertex 186.28105316614295 103.81062710939206 8.999845896907498
    vertex 186.11185637427263 78.45962515542408 9.119897422915285
    vertex 186.11185637425774 103.81062710939196 9.119897422913962
  endloop
endfacet
facet normal -0.5786712961797976 -5.720671429444898e-13 -0.8155608689592659
  outer loop
    vertex 186.11185637427263 78.45962515542408 9.119897422915285
    vertex 186.28105316614295 103.81062710939206 8.999845896907498
    vertex 186.2810531661578 78.45962515542416 8.9998458969089
  endloop
endfacet
facet normal 0.0020618012068606213 -2.1546954144810303e-14 -0.9999978744856329
  outer loop
    vertex 188.00150329569084 103.81062710939695 4.169909234595435
    vertex 182.26322170172492 78.4596251554187 4.158078013528545
    vertex 182.2632217017161 103.81062710938384 4.15807801353222
  endloop
endfacet
facet normal 0.0020618012068606213 -2.1546954144810303e-14 -0.9999978744856329
  outer loop
    vertex 182.26322170172492 78.4596251554187 4.158078013528545
    vertex 188.00150329569084 103.81062710939695 4.169909234595435
    vertex 188.00150329569982 78.45962515543181 4.169909234591718
  endloop
endfacet
facet normal 0.16750622330474293 3.7883293689892277e-13 0.9858710185182348
  outer loop
    vertex 184.7159333049001 78.45962515542227 5.7498410168066005
    vertex 184.9204627519133 103.8106271093903 5.715090066039143
    vertex 184.7159333048851 103.81062710939015 5.749841016805248
  endloop
endfacet
facet normal 0.16750622330474293 3.7883293689892277e-13 0.9858710185182348
  outer loop
    vertex 184.9204627519133 103.8106271093903 5.715090066039143
    vertex 184.7159333049001 78.45962515542227 5.7498410168066005
    vertex 184.92046275192814 78.45962515542242 5.715090066040504
  endloop
endfacet
facet normal 0.27683551142497054 -1.1056622161936145e-13 -0.9609173219450647
  outer loop
    vertex 184.71593330488506 103.81062710939119 9.357074291878043
    vertex 184.51658076810222 78.45962515542313 9.299641815413473
    vertex 184.51658076808724 103.81062710939102 9.299641815412105
  endloop
endfacet
facet normal 0.27683551142497054 -1.1056622161936145e-13 -0.9609173219450647
  outer loop
    vertex 184.51658076810222 78.45962515542313 9.299641815413473
    vertex 184.71593330488506 103.81062710939119 9.357074291878043
    vertex 184.71593330489995 78.45962515542331 9.357074291879396
  endloop
endfacet
facet normal -0.7456421648831685 -2.48758293702898e-13 0.6663465779520007
  outer loop
    vertex 186.57398527528505 78.45962515542355 6.400001520904366
    vertex 186.4357445778996 103.81062710939133 6.245310109146491
    vertex 186.4357445779145 78.45962515542345 6.245310109147846
  endloop
endfacet
facet normal -0.7456421648831685 -2.48758293702898e-13 0.6663465779520007
  outer loop
    vertex 186.4357445778996 103.81062710939133 6.245310109146491
    vertex 186.57398527528505 78.45962515542355 6.400001520904366
    vertex 186.57398527527027 103.81062710939145 6.400001520902993
  endloop
endfacet
facet normal -0.3826834323651274 3.7818760397528056e-14 0.9238795325112712
  outer loop
    vertex 185.73861329733634 78.45962515542301 5.807273493272516
    vertex 185.93028195007187 103.81062710939091 5.886665248722142
    vertex 185.73861329732148 103.81062710939088 5.807273493271129
  endloop
endfacet
facet normal -0.3826834323651274 3.7818760397528056e-14 0.9238795325112712
  outer loop
    vertex 185.93028195007187 103.81062710939091 5.886665248722142
    vertex 185.73861329733634 78.45962515542301 5.807273493272516
    vertex 185.9302819500868 78.45962515542303 5.886665248723529
  endloop
endfacet
facet normal -0.004392594330427395 1.5963187348419869e-12 0.9999903525109873
  outer loop
    vertex 188.0050245602582 78.45962515542409 10.928849056116755
    vertex 182.25909586918561 103.81062710938427 10.903609278799667
    vertex 182.2590958691563 78.45962515541935 10.903609278853494
  endloop
endfacet
facet normal -0.004392594330427395 1.5963187348419869e-12 0.9999903525109873
  outer loop
    vertex 182.25909586918561 103.81062710938427 10.903609278799667
    vertex 188.0050245602582 78.45962515542409 10.928849056116755
    vertex 188.00502456024913 103.81062710938923 10.928849056120335
  endloop
endfacet
facet normal -0.6663465779519937 -6.037152698765146e-13 -0.7456421648831749
  outer loop
    vertex 186.4357445778995 103.81062710939216 8.861605199536791
    vertex 186.2810531661578 78.45962515542416 8.9998458969089
    vertex 186.28105316614295 103.81062710939206 8.999845896907498
  endloop
endfacet
facet normal -0.6663465779519937 -6.037152698765146e-13 -0.7456421648831749
  outer loop
    vertex 186.2810531661578 78.45962515542416 8.9998458969089
    vertex 186.4357445778995 103.81062710939216 8.861605199536791
    vertex 186.4357445779144 78.45962515542428 8.861605199538168
  endloop
endfacet
facet normal 0.38268343236509167 4.87677123591304e-13 0.9238795325112862
  outer loop
    vertex 184.32491211535176 78.45962515542209 5.886665248723512
    vertex 184.51658076808735 103.81062710938996 5.807273493271103
    vertex 184.32491211533687 103.81062710938996 5.886665248722125
  endloop
endfacet
facet normal 0.38268343236509167 4.87677123591304e-13 0.9238795325112862
  outer loop
    vertex 184.51658076808735 103.81062710938996 5.807273493271103
    vertex 184.32491211535176 78.45962515542209 5.886665248723512
    vertex 184.51658076810227 78.45962515542207 5.807273493272479
  endloop
endfacet
facet normal 0.7456421648831533 6.277713270060846e-13 0.6663465779520178
  outer loop
    vertex 183.81944948750936 103.8106271093898 6.245310109146454
    vertex 183.68120879015333 78.45962515542192 6.400001520904366
    vertex 183.81944948752422 78.45962515542192 6.245310109147849
  endloop
endfacet
facet normal 0.7456421648831533 6.277713270060846e-13 0.6663465779520178
  outer loop
    vertex 183.68120879015333 78.45962515542192 6.400001520904366
    vertex 183.81944948750936 103.8106271093898 6.245310109146454
    vertex 183.68120879013844 103.8106271093898 6.400001520902962
  endloop
endfacet
facet normal 0.999999893897718 2.544645599006901e-13 -0.0004606566541550686
  outer loop
    vertex 188.50298838525825 78.45962515542233 4.6706807003966
    vertex 188.50564035615898 103.8106271093797 10.427616163111553
    vertex 188.50564035616813 78.45962515541454 10.427616163107864
  endloop
endfacet
facet normal 0.999999893897718 2.544645599006901e-13 -0.0004606566541550686
  outer loop
    vertex 188.50564035615898 103.8106271093797 10.427616163111553
    vertex 188.50298838525825 78.45962515542233 4.6706807003966
    vertex 188.5029883852492 103.81062710938747 4.670680700400317
  endloop
endfacet
facet normal 0.05607044723715349 3.1690534518458816e-13 0.9984268150178188
  outer loop
    vertex 184.92046275192814 78.45962515542242 5.715090066040504
    vertex 185.1275970327044 103.81062710939042 5.70345765434161
    vertex 184.9204627519133 103.8106271093903 5.715090066039143
  endloop
endfacet
facet normal 0.05607044723715349 3.1690534518458816e-13 0.9984268150178188
  outer loop
    vertex 185.1275970327044 103.81062710939042 5.70345765434161
    vertex 184.92046275192814 78.45962515542242 5.715090066040504
    vertex 185.12759703271917 78.45962515542256 5.7034576543430155
  endloop
endfacet
facet normal 0.48371888710522265 5.332249397688451e-13 0.8752234219087631
  outer loop
    vertex 184.14333769116595 78.45962515542203 5.987017885770653
    vertex 184.32491211533687 103.81062710938996 5.886665248722125
    vertex 184.14333769115103 103.81062710938993 5.987017885769232
  endloop
endfacet
facet normal 0.48371888710522265 5.332249397688451e-13 0.8752234219087631
  outer loop
    vertex 184.32491211533687 103.81062710938996 5.886665248722125
    vertex 184.14333769116595 78.45962515542203 5.987017885770653
    vertex 184.32491211535176 78.45962515542209 5.886665248723512
  endloop
endfacet
facet normal -0.6663465779520001 -1.7959948985748183e-13 0.745642164883169
  outer loop
    vertex 186.281053166158 78.45962515542328 6.107069411777128
    vertex 186.4357445778996 103.81062710939133 6.245310109146491
    vertex 186.28105316614295 103.81062710939115 6.107069411775821
  endloop
endfacet
facet normal -0.6663465779520001 -1.7959948985748183e-13 0.745642164883169
  outer loop
    vertex 186.4357445778996 103.81062710939133 6.245310109146491
    vertex 186.281053166158 78.45962515542328 6.107069411777128
    vertex 186.4357445779145 78.45962515542345 6.245310109147846
  endloop
endfacet
facet normal 0.5786712961798006 5.720671429444907e-13 0.8155608689592639
  outer loop
    vertex 183.97414089928063 78.459625155422 6.1070694117771165
    vertex 184.14333769115103 103.81062710938993 5.987017885769232
    vertex 183.97414089926576 103.81062710938988 6.107069411775716
  endloop
endfacet
facet normal 0.5786712961798006 5.720671429444907e-13 0.8155608689592639
  outer loop
    vertex 184.14333769115103 103.81062710938993 5.987017885769232
    vertex 183.97414089928063 78.459625155422 6.1070694117771165
    vertex 184.14333769116595 78.45962515542203 5.987017885770653
  endloop
endfacet
facet normal 0.27683551142484897 4.359964846277339e-13 0.9609173219450997
  outer loop
    vertex 184.51658076810227 78.45962515542207 5.807273493272479
    vertex 184.7159333048851 103.81062710939015 5.749841016805248
    vertex 184.51658076808735 103.81062710938996 5.807273493271103
  endloop
endfacet
facet normal 0.27683551142484897 4.359964846277339e-13 0.9609173219450997
  outer loop
    vertex 184.7159333048851 103.81062710939015 5.749841016805248
    vertex 184.51658076810227 78.45962515542207 5.807273493272479
    vertex 184.7159333049001 78.45962515542227 5.7498410168066005
  endloop
endfacet
facet normal 0.7066031299911861 1.6198459213764695e-13 -0.7076100739013395
  outer loop
    vertex 188.5029883852492 103.81062710938747 4.670680700400317
    vertex 188.00150329569982 78.45962515543181 4.169909234591718
    vertex 188.00150329569084 103.81062710939695 4.169909234595435
  endloop
endfacet
facet normal 0.7066031299911861 1.6198459213764695e-13 -0.7076100739013395
  outer loop
    vertex 188.00150329569982 78.45962515543181 4.169909234591718
    vertex 188.5029883852492 103.81062710938747 4.670680700400317
    vertex 188.50298838525825 78.45962515542233 4.6706807003966
  endloop
endfacet
facet normal -0.7071067811547066 1.688139348627443e-12 0.7071067812183885
  outer loop
    vertex 181.72622684062114 78.45962515541889 10.370740250318452
    vertex 182.25909586918561 103.81062710938427 10.903609278799667
    vertex 181.72622684061227 103.81062710938404 10.370740250322175
  endloop
endfacet
facet normal -0.7071067811547066 1.688139348627443e-12 0.7071067812183885
  outer loop
    vertex 182.25909586918561 103.81062710938427 10.903609278799667
    vertex 181.72622684062114 78.45962515541889 10.370740250318452
    vertex 182.2590958691563 78.45962515541935 10.903609278853494
  endloop
endfacet
facet normal 0.9858710185182321 6.271018636876841e-13 0.16750622330475862
  outer loop
    vertex 183.32398039516792 103.8106271093897 7.141793926522422
    vertex 183.2892294444168 78.4596251554219 7.346323373551867
    vertex 183.32398039518282 78.45962515542182 7.14179392652377
  endloop
endfacet
facet normal 0.9858710185182321 6.271018636876841e-13 0.16750622330475862
  outer loop
    vertex 183.2892294444168 78.4596251554219 7.346323373551867
    vertex 183.32398039516792 103.8106271093897 7.141793926522422
    vertex 183.2892294444019 103.81062710938977 7.346323373550496
  endloop
endfacet
facet normal -0.38268343236509167 -4.87677123591304e-13 -0.9238795325112862
  outer loop
    vertex 185.9302819500718 103.81062710939192 9.220250059961149
    vertex 185.7386132973364 78.45962515542388 9.299641815413464
    vertex 185.73861329732142 103.81062710939176 9.299641815412116
  endloop
endfacet
facet normal -0.38268343236509167 -4.87677123591304e-13 -0.9238795325112862
  outer loop
    vertex 185.7386132973364 78.45962515542388 9.299641815413464
    vertex 185.9302819500718 103.81062710939192 9.220250059961149
    vertex 185.93028195008677 78.45962515542404 9.220250059962474
  endloop
endfacet
facet normal 0.48371888710515754 3.5404293679227424e-14 -0.8752234219087992
  outer loop
    vertex 184.32491211533687 103.81062710939088 9.220250059961115
    vertex 184.14333769116598 78.4596251554229 9.119897422915313
    vertex 184.14333769115112 103.81062710939077 9.119897422913931
  endloop
endfacet
facet normal 0.48371888710515754 3.5404293679227424e-14 -0.8752234219087992
  outer loop
    vertex 184.14333769116598 78.4596251554229 9.119897422915313
    vertex 184.32491211533687 103.81062710939088 9.220250059961115
    vertex 184.32491211535168 78.459625155423 9.22025005996247
  endloop
endfacet
facet normal 0.5786712961798501 1.0818211822110024e-13 -0.8155608689592289
  outer loop
    vertex 184.14333769115112 103.81062710939077 9.119897422913931
    vertex 183.9741408992805 78.45962515542274 8.999845896908852
    vertex 183.9741408992656 103.81062710939064 8.999845896907527
  endloop
endfacet
facet normal 0.5786712961798501 1.0818211822110024e-13 -0.8155608689592289
  outer loop
    vertex 183.9741408992805 78.45962515542274 8.999845896908852
    vertex 184.14333769115112 103.81062710939077 9.119897422913931
    vertex 184.14333769116598 78.4596251554229 9.119897422915313
  endloop
endfacet
facet normal 0.8752234219088018 3.7686068961434106e-13 -0.4837188871051528
  outer loop
    vertex 183.4608046270847 103.81062710939023 8.35614257170915
    vertex 183.5611572641468 78.4596251554225 8.537716995896384
    vertex 183.46080462709966 78.45962515542234 8.356142571710498
  endloop
endfacet
facet normal 0.8752234219088018 3.7686068961434106e-13 -0.4837188871051528
  outer loop
    vertex 183.5611572641468 78.4596251554225 8.537716995896384
    vertex 183.4608046270847 103.81062710939023 8.35614257170915
    vertex 183.56115726413205 103.81062710939038 8.537716995894952
  endloop
endfacet
facet normal -0.8155608689592505 -6.439327954571456e-13 -0.5786712961798194
  outer loop
    vertex 186.57398527527022 103.81062710939216 8.706913787780323
    vertex 186.6940368012916 78.45962515542429 8.537716995896416
    vertex 186.57398527528508 78.45962515542428 8.70691378778167
  endloop
endfacet
facet normal -0.8155608689592505 -6.439327954571456e-13 -0.5786712961798194
  outer loop
    vertex 186.6940368012916 78.45962515542429 8.537716995896416
    vertex 186.57398527527022 103.81062710939216 8.706913787780323
    vertex 186.69403680127667 103.81062710939219 8.537716995895003
  endloop
endfacet
facet normal 0.8155608689592287 3.1478881767203653e-13 -0.5786712961798502
  outer loop
    vertex 183.56115726413205 103.81062710939038 8.537716995894952
    vertex 183.68120879015333 78.45962515542253 8.706913787781648
    vertex 183.5611572641468 78.4596251554225 8.537716995896384
  endloop
endfacet
facet normal 0.8155608689592287 3.1478881767203653e-13 -0.5786712961798502
  outer loop
    vertex 183.68120879015333 78.45962515542253 8.706913787781648
    vertex 183.56115726413205 103.81062710939038 8.537716995894952
    vertex 183.6812087901385 103.81062710939041 8.706913787780286
  endloop
endfacet
facet normal 0.056070447237204384 -2.5099248488183305e-13 -0.998426815017816
  outer loop
    vertex 185.12759703270436 103.81062710939145 9.403457654341633
    vertex 184.92046275192808 78.45962515542344 9.39182524264551
    vertex 184.92046275191316 103.8106271093913 9.391825242644167
  endloop
endfacet
facet normal 0.056070447237204384 -2.5099248488183305e-13 -0.998426815017816
  outer loop
    vertex 184.92046275192808 78.45962515542344 9.39182524264551
    vertex 185.12759703270436 103.81062710939145 9.403457654341633
    vertex 185.1275970327193 78.45962515542355 9.403457654343011
  endloop
endfacet
facet normal -0.16750622330474293 -3.7883293689892277e-13 -0.9858710185182348
  outer loop
    vertex 185.5392607605234 103.81062710939172 9.357074291878087
    vertex 185.33473131351036 78.45962515542368 9.391825242645515
    vertex 185.33473131349538 103.81062710939156 9.391825242644146
  endloop
endfacet
facet normal -0.16750622330474293 -3.7883293689892277e-13 -0.9858710185182348
  outer loop
    vertex 185.33473131351036 78.45962515542368 9.391825242645515
    vertex 185.5392607605234 103.81062710939172 9.357074291878087
    vertex 185.53926076053833 78.45962515542384 9.357074291879435
  endloop
endfacet
facet normal 0.9858710185182409 5.318255556934108e-13 -0.16750622330470707
  outer loop
    vertex 183.28922944440188 103.81062710939 7.760591935132723
    vertex 183.3239803951829 78.45962515542217 7.965121382162142
    vertex 183.2892294444169 78.45962515542212 7.760591935134079
  endloop
endfacet
facet normal 0.9858710185182409 5.318255556934108e-13 -0.16750622330470707
  outer loop
    vertex 183.3239803951829 78.45962515542217 7.965121382162142
    vertex 183.28922944440188 103.81062710939 7.760591935132723
    vertex 183.32398039516804 103.81062710939004 7.96512138216074
  endloop
endfacet
facet normal -0.27683551142484897 -4.359964846277339e-13 -0.9609173219450997
  outer loop
    vertex 185.73861329732142 103.81062710939176 9.299641815412116
    vertex 185.53926076053833 78.45962515542384 9.357074291879435
    vertex 185.5392607605234 103.81062710939172 9.357074291878087
  endloop
endfacet
facet normal -0.27683551142484897 -4.359964846277339e-13 -0.9609173219450997
  outer loop
    vertex 185.53926076053833 78.45962515542384 9.357074291879435
    vertex 185.73861329732142 103.81062710939176 9.299641815412116
    vertex 185.7386132973364 78.45962515542388 9.299641815413464
  endloop
endfacet
facet normal 0.9609173219451199 4.860657169152564e-13 -0.2768355114247788
  outer loop
    vertex 183.32398039516804 103.81062710939004 7.96512138216074
    vertex 183.3814128716487 78.45962515542229 8.164473918960082
    vertex 183.3239803951829 78.45962515542217 7.965121382162142
  endloop
endfacet
facet normal 0.9609173219451199 4.860657169152564e-13 -0.2768355114247788
  outer loop
    vertex 183.3814128716487 78.45962515542229 8.164473918960082
    vertex 183.32398039516804 103.81062710939004 7.96512138216074
    vertex 183.38141287163387 103.81062710939015 8.164473918958675
  endloop
endfacet
facet normal 0.9984268150178179 6.027898375892589e-13 0.05607044723716798
  outer loop
    vertex 183.2892294444019 103.81062710938977 7.346323373550496
    vertex 183.27759703271929 78.45962515542197 7.553457654342987
    vertex 183.2892294444168 78.4596251554219 7.346323373551867
  endloop
endfacet
facet normal 0.9984268150178179 6.027898375892589e-13 0.05607044723716798
  outer loop
    vertex 183.27759703271929 78.45962515542197 7.553457654342987
    vertex 183.2892294444019 103.81062710938977 7.346323373550496
    vertex 183.27759703270434 103.81062710938987 7.553457654341599
  endloop
endfacet
facet normal 0.9238795325112722 4.3419331972492397e-13 -0.3826834323651249
  outer loop
    vertex 183.38141287163387 103.81062710939015 8.164473918958675
    vertex 183.46080462709966 78.45962515542234 8.356142571710498
    vertex 183.3814128716487 78.45962515542229 8.164473918960082
  endloop
endfacet
facet normal 0.9238795325112722 4.3419331972492397e-13 -0.3826834323651249
  outer loop
    vertex 183.46080462709966 78.45962515542234 8.356142571710498
    vertex 183.38141287163387 103.81062710939015 8.164473918958675
    vertex 183.4608046270847 103.81062710939023 8.35614257170915
  endloop
endfacet
facet normal -0.05607044723715349 -3.1690534518458816e-13 -0.9984268150178188
  outer loop
    vertex 185.33473131349538 103.81062710939156 9.391825242644146
    vertex 185.1275970327193 78.45962515542355 9.403457654343011
    vertex 185.12759703270436 103.81062710939145 9.403457654341633
  endloop
endfacet
facet normal -0.05607044723715349 -3.1690534518458816e-13 -0.9984268150178188
  outer loop
    vertex 185.1275970327193 78.45962515542355 9.403457654343011
    vertex 185.33473131349538 103.81062710939156 9.391825242644146
    vertex 185.33473131351036 78.45962515542368 9.391825242645515
  endloop
endfacet
facet normal -0.48371888710522526 -5.332249397688467e-13 -0.8752234219087619
  outer loop
    vertex 186.11185637425774 103.81062710939196 9.119897422913962
    vertex 185.93028195008677 78.45962515542404 9.220250059962474
    vertex 185.9302819500718 103.81062710939192 9.220250059961149
  endloop
endfacet
facet normal -0.48371888710522526 -5.332249397688467e-13 -0.8752234219087619
  outer loop
    vertex 185.93028195008677 78.45962515542404 9.220250059962474
    vertex 186.11185637425774 103.81062710939196 9.119897422913962
    vertex 186.11185637427263 78.45962515542408 9.119897422915285
  endloop
endfacet
facet normal 0.9984268150178164 5.708973795363533e-13 -0.056070447237195495
  outer loop
    vertex 183.27759703270434 103.81062710938987 7.553457654341599
    vertex 183.2892294444169 78.45962515542212 7.760591935134079
    vertex 183.27759703271929 78.45962515542197 7.553457654342987
  endloop
endfacet
facet normal 0.9984268150178164 5.708973795363533e-13 -0.056070447237195495
  outer loop
    vertex 183.2892294444169 78.45962515542212 7.760591935134079
    vertex 183.27759703270434 103.81062710938987 7.553457654341599
    vertex 183.28922944440188 103.81062710939 7.760591935132723
  endloop
endfacet
facet normal -6.389381464208786e-13 1.0 5.861257774246003e-13
  outer loop
    vertex 181.73795109757876 103.81062710938363 4.68433750344217
    vertex 184.9204627519133 103.8106271093903 5.715090066039143
    vertex 185.1275970327044 103.81062710939042 5.70345765434161
  endloop
endfacet
facet normal -6.389381464208786e-13 1.0 5.861257774246003e-13
  outer loop
    vertex 184.9204627519133 103.8106271093903 5.715090066039143
    vertex 181.73795109757876 103.81062710938363 4.68433750344217
    vertex 184.7159333048851 103.81062710939015 5.749841016805248
  endloop
endfacet
facet normal -6.389381464208786e-13 1.0 5.861257774246003e-13
  outer loop
    vertex 184.7159333048851 103.81062710939015 5.749841016805248
    vertex 181.73795109757876 103.81062710938363 4.68433750344217
    vertex 184.51658076808735 103.81062710938996 5.807273493271103
  endloop
endfacet
facet normal -6.389381464208786e-13 1.0 5.861257774246003e-13
  outer loop
    vertex 184.51658076808735 103.81062710938996 5.807273493271103
    vertex 181.73795109757876 103.81062710938363 4.68433750344217
    vertex 184.32491211533687 103.81062710938996 5.886665248722125
  endloop
endfacet
facet normal -6.389381464208786e-13 1.0 5.861257774246003e-13
  outer loop
    vertex 184.32491211533687 103.81062710938996 5.886665248722125
    vertex 181.73795109757876 103.81062710938363 4.68433750344217
    vertex 184.14333769115103 103.81062710938993 5.987017885769232
  endloop
endfacet
facet normal -6.389381464208786e-13 1.0 5.861257774246003e-13
  outer loop
    vertex 184.14333769115103 103.81062710938993 5.987017885769232
    vertex 181.73795109757876 103.81062710938363 4.68433750344217
    vertex 183.97414089926576 103.81062710938988 6.107069411775716
  endloop
endfacet
facet normal -6.389381464208786e-13 1.0 5.861257774246003e-13
  outer loop
    vertex 183.97414089926576 103.81062710938988 6.107069411775716
    vertex 181.73795109757876 103.81062710938363 4.68433750344217
    vertex 183.81944948750936 103.8106271093898 6.245310109146454
  endloop
endfacet
facet normal -6.389381464208786e-13 1.0 5.861257774246003e-13
  outer loop
    vertex 183.81944948750936 103.8106271093898 6.245310109146454
    vertex 181.73795109757876 103.81062710938363 4.68433750344217
    vertex 183.68120879013844 103.8106271093898 6.400001520902962
  endloop
endfacet
facet normal -6.389381464208786e-13 1.0 5.861257774246003e-13
  outer loop
    vertex 183.68120879013844 103.8106271093898 6.400001520902962
    vertex 181.73795109757876 103.81062710938363 4.68433750344217
    vertex 183.56115726413208 103.81062710938973 6.569198312788214
  endloop
endfacet
facet normal -6.389381464208786e-13 1.0 5.861257774246003e-13
  outer loop
    vertex 183.56115726413208 103.81062710938973 6.569198312788214
    vertex 181.73795109757876 103.81062710938363 4.68433750344217
    vertex 183.46080462708488 103.81062710938966 6.750772736974114
  endloop
endfacet
facet normal -6.389381464208786e-13 1.0 5.861257774246003e-13
  outer loop
    vertex 183.46080462708488 103.81062710938966 6.750772736974114
    vertex 181.73795109757876 103.81062710938363 4.68433750344217
    vertex 181.72622684061227 103.81062710938404 10.370740250322175
  endloop
endfacet
facet normal -6.389381464208786e-13 1.0 5.861257774246003e-13
  outer loop
    vertex 183.46080462708488 103.81062710938966 6.750772736974114
    vertex 181.72622684061227 103.81062710938404 10.370740250322175
    vertex 183.38141287163384 103.8106271093897 6.942441389724553
  endloop
endfacet
facet normal -6.389381464208786e-13 1.0 5.861257774246003e-13
  outer loop
    vertex 183.38141287163384 103.8106271093897 6.942441389724553
    vertex 181.72622684061227 103.81062710938404 10.370740250322175
    vertex 183.32398039516792 103.8106271093897 7.141793926522422
  endloop
endfacet
facet normal -6.389381464208786e-13 1.0 5.861257774246003e-13
  outer loop
    vertex 183.32398039516792 103.8106271093897 7.141793926522422
    vertex 181.72622684061227 103.81062710938404 10.370740250322175
    vertex 183.2892294444019 103.81062710938977 7.346323373550496
  endloop
endfacet
facet normal -6.389381464208786e-13 1.0 5.861257774246003e-13
  outer loop
    vertex 183.2892294444019 103.81062710938977 7.346323373550496
    vertex 181.72622684061227 103.81062710938404 10.370740250322175
    vertex 183.27759703270434 103.81062710938987 7.553457654341599
  endloop
endfacet
facet normal -6.389381464208786e-13 1.0 5.861257774246003e-13
  outer loop
    vertex 183.27759703270434 103.81062710938987 7.553457654341599
    vertex 181.72622684061227 103.81062710938404 10.370740250322175
    vertex 183.28922944440188 103.81062710939 7.760591935132723
  endloop
endfacet
facet normal -6.389381464208786e-13 1.0 5.861257774246003e-13
  outer loop
    vertex 183.28922944440188 103.81062710939 7.760591935132723
    vertex 181.72622684061227 103.81062710938404 10.370740250322175
    vertex 183.32398039516804 103.81062710939004 7.96512138216074
  endloop
endfacet
facet normal -6.389381464208786e-13 1.0 5.861257774246003e-13
  outer loop
    vertex 183.32398039516804 103.81062710939004 7.96512138216074
    vertex 181.72622684061227 103.81062710938404 10.370740250322175
    vertex 183.38141287163387 103.81062710939015 8.164473918958675
  endloop
endfacet
facet normal -6.389381464208786e-13 1.0 5.861257774246003e-13
  outer loop
    vertex 183.38141287163387 103.81062710939015 8.164473918958675
    vertex 181.72622684061227 103.81062710938404 10.370740250322175
    vertex 183.4608046270847 103.81062710939023 8.35614257170915
  endloop
endfacet
facet normal -6.389381464208786e-13 1.0 5.861257774246003e-13
  outer loop
    vertex 183.4608046270847 103.81062710939023 8.35614257170915
    vertex 181.72622684061227 103.81062710938404 10.370740250322175
    vertex 183.56115726413205 103.81062710939038 8.537716995894952
  endloop
endfacet
facet normal -6.389381464208786e-13 1.0 5.861257774246003e-13
  outer loop
    vertex 183.56115726413205 103.81062710939038 8.537716995894952
    vertex 181.72622684061227 103.81062710938404 10.370740250322175
    vertex 183.6812087901385 103.81062710939041 8.706913787780286
  endloop
endfacet
facet normal -6.389381464208786e-13 1.0 5.861257774246003e-13
  outer loop
    vertex 183.6812087901385 103.81062710939041 8.706913787780286
    vertex 181.72622684061227 103.81062710938404 10.370740250322175
    vertex 183.81944948750913 103.81062710939057 8.861605199536774
  endloop
endfacet
facet normal -6.389381464208786e-13 1.0 5.861257774246003e-13
  outer loop
    vertex 183.81944948750913 103.81062710939057 8.861605199536774
    vertex 181.72622684061227 103.81062710938404 10.370740250322175
    vertex 183.9741408992656 103.81062710939064 8.999845896907527
  endloop
endfacet
facet normal -6.389381464208786e-13 1.0 5.861257774246003e-13
  outer loop
    vertex 183.9741408992656 103.81062710939064 8.999845896907527
    vertex 181.72622684061227 103.81062710938404 10.370740250322175
    vertex 184.14333769115112 103.81062710939077 9.119897422913931
  endloop
endfacet
facet normal -6.389381464208786e-13 1.0 5.861257774246003e-13
  outer loop
    vertex 184.14333769115112 103.81062710939077 9.119897422913931
    vertex 181.72622684061227 103.81062710938404 10.370740250322175
    vertex 184.32491211533687 103.81062710939088 9.220250059961115
  endloop
endfacet
facet normal -6.389381464208786e-13 1.0 5.861257774246003e-13
  outer loop
    vertex 184.32491211533687 103.81062710939088 9.220250059961115
    vertex 181.72622684061227 103.81062710938404 10.370740250322175
    vertex 184.51658076808724 103.81062710939102 9.299641815412105
  endloop
endfacet
facet normal -6.389381464208786e-13 1.0 5.861257774246003e-13
  outer loop
    vertex 184.51658076808724 103.81062710939102 9.299641815412105
    vertex 181.72622684061227 103.81062710938404 10.370740250322175
    vertex 184.71593330488506 103.81062710939119 9.357074291878043
  endloop
endfacet
facet normal -6.389381464208786e-13 1.0 5.861257774246003e-13
  outer loop
    vertex 184.71593330488506 103.81062710939119 9.357074291878043
    vertex 181.72622684061227 103.81062710938404 10.370740250322175
    vertex 184.92046275191316 103.8106271093913 9.391825242644167
  endloop
endfacet
facet normal -6.389381464208786e-13 1.0 5.861257774246003e-13
  outer loop
    vertex 184.92046275191316 103.8106271093913 9.391825242644167
    vertex 181.72622684061227 103.81062710938404 10.370740250322175
    vertex 185.12759703270436 103.81062710939145 9.403457654341633
  endloop
endfacet
facet normal -6.389381464208786e-13 1.0 5.861257774246003e-13
  outer loop
    vertex 181.73795109757876 103.81062710938363 4.68433750344217
    vertex 188.00150329569084 103.81062710939695 4.169909234595435
    vertex 182.2632217017161 103.81062710938384 4.15807801353222
  endloop
endfacet
facet normal -6.389381464208786e-13 1.0 5.861257774246003e-13
  outer loop
    vertex 188.00150329569084 103.81062710939695 4.169909234595435
    vertex 181.73795109757876 103.81062710938363 4.68433750344217
    vertex 188.5029883852492 103.81062710938747 4.670680700400317
  endloop
endfacet
facet normal -6.389381464208786e-13 1.0 5.861257774246003e-13
  outer loop
    vertex 188.5029883852492 103.81062710938747 4.670680700400317
    vertex 181.73795109757876 103.81062710938363 4.68433750344217
    vertex 185.5392607605237 103.81062710939074 5.749841016805192
  endloop
endfacet
facet normal -6.389381464208786e-13 1.0 5.861257774246003e-13
  outer loop
    vertex 188.5029883852492 103.81062710938747 4.670680700400317
    vertex 185.5392607605237 103.81062710939074 5.749841016805192
    vertex 185.73861329732148 103.81062710939088 5.807273493271129
  endloop
endfacet
facet normal -6.389381464208786e-13 1.0 5.861257774246003e-13
  outer loop
    vertex 188.5029883852492 103.81062710938747 4.670680700400317
    vertex 185.73861329732148 103.81062710939088 5.807273493271129
    vertex 185.93028195007187 103.81062710939091 5.886665248722142
  endloop
endfacet
facet normal -6.389381464208786e-13 1.0 5.861257774246003e-13
  outer loop
    vertex 188.5029883852492 103.81062710938747 4.670680700400317
    vertex 185.93028195007187 103.81062710939091 5.886665248722142
    vertex 186.11185637425777 103.81062710939099 5.987017885769306
  endloop
endfacet
facet normal -6.389381464208786e-13 1.0 5.861257774246003e-13
  outer loop
    vertex 188.5029883852492 103.81062710938747 4.670680700400317
    vertex 186.11185637425777 103.81062710939099 5.987017885769306
    vertex 186.28105316614295 103.81062710939115 6.107069411775821
  endloop
endfacet
facet normal -6.389381464208786e-13 1.0 5.861257774246003e-13
  outer loop
    vertex 188.5029883852492 103.81062710938747 4.670680700400317
    vertex 186.28105316614295 103.81062710939115 6.107069411775821
    vertex 186.4357445778996 103.81062710939133 6.245310109146491
  endloop
endfacet
facet normal -6.389381464208786e-13 1.0 5.861257774246003e-13
  outer loop
    vertex 188.5029883852492 103.81062710938747 4.670680700400317
    vertex 186.4357445778996 103.81062710939133 6.245310109146491
    vertex 186.57398527527027 103.81062710939145 6.400001520902993
  endloop
endfacet
facet normal -6.389381464208786e-13 1.0 5.861257774246003e-13
  outer loop
    vertex 188.5029883852492 103.81062710938747 4.670680700400317
    vertex 186.57398527527027 103.81062710939145 6.400001520902993
    vertex 186.6940368012767 103.81062710939158 6.5691983127882985
  endloop
endfacet
facet normal -6.389381464208786e-13 1.0 5.861257774246003e-13
  outer loop
    vertex 188.5029883852492 103.81062710938747 4.670680700400317
    vertex 186.6940368012767 103.81062710939158 6.5691983127882985
    vertex 186.79438943832378 103.81062710939167 6.750772736974182
  endloop
endfacet
facet normal -6.389381464208786e-13 1.0 5.861257774246003e-13
  outer loop
    vertex 188.5029883852492 103.81062710938747 4.670680700400317
    vertex 186.79438943832378 103.81062710939167 6.750772736974182
    vertex 188.50564035615898 103.8106271093797 10.427616163111553
  endloop
endfacet
facet normal -6.389381464208786e-13 1.0 5.861257774246003e-13
  outer loop
    vertex 185.5392607605237 103.81062710939074 5.749841016805192
    vertex 181.73795109757876 103.81062710938363 4.68433750344217
    vertex 185.33473131349547 103.81062710939057 5.715090066039129
  endloop
endfacet
facet normal -6.389381464208786e-13 1.0 5.861257774246003e-13
  outer loop
    vertex 185.33473131349547 103.81062710939057 5.715090066039129
    vertex 181.73795109757876 103.81062710938363 4.68433750344217
    vertex 185.1275970327044 103.81062710939042 5.70345765434161
  endloop
endfacet
facet normal -6.389381464208786e-13 1.0 5.861257774246003e-13
  outer loop
    vertex 188.50564035615898 103.8106271093797 10.427616163111553
    vertex 186.79438943832378 103.81062710939167 6.750772736974182
    vertex 186.87378119377487 103.81062710939176 6.9424413897245865
  endloop
endfacet
facet normal -6.389381464208786e-13 1.0 5.861257774246003e-13
  outer loop
    vertex 188.50564035615898 103.8106271093797 10.427616163111553
    vertex 186.87378119377487 103.81062710939176 6.9424413897245865
    vertex 186.93121367024082 103.8106271093918 7.141793926522451
  endloop
endfacet
facet normal -6.389381464208786e-13 1.0 5.861257774246003e-13
  outer loop
    vertex 188.50564035615898 103.8106271093797 10.427616163111553
    vertex 186.93121367024082 103.8106271093918 7.141793926522451
    vertex 186.9659646210068 103.81062710939189 7.346323373550558
  endloop
endfacet
facet normal -6.389381464208786e-13 1.0 5.861257774246003e-13
  outer loop
    vertex 188.50564035615898 103.8106271093797 10.427616163111553
    vertex 186.9659646210068 103.81062710939189 7.346323373550558
    vertex 186.97759703270438 103.810627109392 7.553457654341642
  endloop
endfacet
facet normal -6.389381464208786e-13 1.0 5.861257774246003e-13
  outer loop
    vertex 188.50564035615898 103.8106271093797 10.427616163111553
    vertex 186.97759703270438 103.810627109392 7.553457654341642
    vertex 186.96596462100692 103.8106271093921 7.760591935132768
  endloop
endfacet
facet normal -6.389381464208786e-13 1.0 5.861257774246003e-13
  outer loop
    vertex 188.50564035615898 103.8106271093797 10.427616163111553
    vertex 186.96596462100692 103.8106271093921 7.760591935132768
    vertex 186.93121367024082 103.81062710939214 7.965121382160771
  endloop
endfacet
facet normal -6.389381464208786e-13 1.0 5.861257774246003e-13
  outer loop
    vertex 188.50564035615898 103.8106271093797 10.427616163111553
    vertex 186.93121367024082 103.81062710939214 7.965121382160771
    vertex 186.87378119377487 103.81062710939221 8.164473918958706
  endloop
endfacet
facet normal -6.389381464208786e-13 1.0 5.861257774246003e-13
  outer loop
    vertex 188.50564035615898 103.8106271093797 10.427616163111553
    vertex 186.87378119377487 103.81062710939221 8.164473918958706
    vertex 186.7943894383238 103.81062710939216 8.35614257170913
  endloop
endfacet
facet normal -6.389381464208786e-13 1.0 5.861257774246003e-13
  outer loop
    vertex 188.50564035615898 103.8106271093797 10.427616163111553
    vertex 186.7943894383238 103.81062710939216 8.35614257170913
    vertex 186.69403680127667 103.81062710939219 8.537716995895003
  endloop
endfacet
facet normal -6.389381464208786e-13 1.0 5.861257774246003e-13
  outer loop
    vertex 188.50564035615898 103.8106271093797 10.427616163111553
    vertex 186.69403680127667 103.81062710939219 8.537716995895003
    vertex 186.57398527527022 103.81062710939216 8.706913787780323
  endloop
endfacet
facet normal -6.389381464208786e-13 1.0 5.861257774246003e-13
  outer loop
    vertex 188.50564035615898 103.8106271093797 10.427616163111553
    vertex 186.57398527527022 103.81062710939216 8.706913787780323
    vertex 186.4357445778995 103.81062710939216 8.861605199536791
  endloop
endfacet
facet normal -6.389381464208786e-13 1.0 5.861257774246003e-13
  outer loop
    vertex 188.50564035615898 103.8106271093797 10.427616163111553
    vertex 186.4357445778995 103.81062710939216 8.861605199536791
    vertex 186.28105316614295 103.81062710939206 8.999845896907498
  endloop
endfacet
facet normal -6.389381464208786e-13 1.0 5.861257774246003e-13
  outer loop
    vertex 188.50564035615898 103.8106271093797 10.427616163111553
    vertex 186.28105316614295 103.81062710939206 8.999845896907498
    vertex 186.11185637425774 103.81062710939196 9.119897422913962
  endloop
endfacet
facet normal -6.389381464208786e-13 1.0 5.861257774246003e-13
  outer loop
    vertex 188.50564035615898 103.8106271093797 10.427616163111553
    vertex 186.11185637425774 103.81062710939196 9.119897422913962
    vertex 185.9302819500718 103.81062710939192 9.220250059961149
  endloop
endfacet
facet normal -6.389381464208786e-13 1.0 5.861257774246003e-13
  outer loop
    vertex 188.50564035615898 103.8106271093797 10.427616163111553
    vertex 185.9302819500718 103.81062710939192 9.220250059961149
    vertex 185.73861329732142 103.81062710939176 9.299641815412116
  endloop
endfacet
facet normal -6.389381464208786e-13 1.0 5.861257774246003e-13
  outer loop
    vertex 188.50564035615898 103.8106271093797 10.427616163111553
    vertex 185.73861329732142 103.81062710939176 9.299641815412116
    vertex 185.5392607605234 103.81062710939172 9.357074291878087
  endloop
endfacet
facet normal -6.389381464208786e-13 1.0 5.861257774246003e-13
  outer loop
    vertex 188.50564035615898 103.8106271093797 10.427616163111553
    vertex 185.5392607605234 103.81062710939172 9.357074291878087
    vertex 185.33473131349538 103.81062710939156 9.391825242644146
  endloop
endfacet
facet normal -6.389381464208786e-13 1.0 5.861257774246003e-13
  outer loop
    vertex 188.50564035615898 103.8106271093797 10.427616163111553
    vertex 185.33473131349538 103.81062710939156 9.391825242644146
    vertex 185.12759703270436 103.81062710939145 9.403457654341633
  endloop
endfacet
facet normal -6.389381464208786e-13 1.0 5.861257774246003e-13
  outer loop
    vertex 188.50564035615898 103.8106271093797 10.427616163111553
    vertex 185.12759703270436 103.81062710939145 9.403457654341633
    vertex 181.72622684061227 103.81062710938404 10.370740250322175
  endloop
endfacet
facet normal -6.389381464208786e-13 1.0 5.861257774246003e-13
  outer loop
    vertex 188.50564035615898 103.8106271093797 10.427616163111553
    vertex 181.72622684061227 103.81062710938404 10.370740250322175
    vertex 182.25909586918561 103.81062710938427 10.903609278799667
  endloop
endfacet
facet normal -6.389381464208786e-13 1.0 5.861257774246003e-13
  outer loop
    vertex 188.50564035615898 103.8106271093797 10.427616163111553
    vertex 182.25909586918561 103.81062710938427 10.903609278799667
    vertex 188.00502456024913 103.81062710938923 10.928849056120335
  endloop
endfacet
facet normal -0.7077714494973639 -1.8633260173858227e-13 -0.7064414875107496
  outer loop
    vertex 181.73795109757876 103.81062710938363 4.68433750344217
    vertex 182.26322170172492 78.4596251554187 4.158078013528545
    vertex 181.73795109758757 78.45962515541848 4.684337503438532
  endloop
endfacet
facet normal -0.7077714494973639 -1.8633260173858227e-13 -0.7064414875107496
  outer loop
    vertex 182.26322170172492 78.4596251554187 4.158078013528545
    vertex 181.73795109757876 103.81062710938363 4.68433750344217
    vertex 182.2632217017161 103.81062710938384 4.15807801353222
  endloop
endfacet
facet normal -0.9858710185182415 -5.318255556934119e-13 0.16750622330470333
  outer loop
    vertex 186.9659646210217 78.45962515542402 7.346323373551923
    vertex 186.93121367024082 103.8106271093918 7.141793926522451
    vertex 186.93121367025566 78.45962515542394 7.141793926523855
  endloop
endfacet
facet normal -0.9858710185182415 -5.318255556934119e-13 0.16750622330470333
  outer loop
    vertex 186.93121367024082 103.8106271093918 7.141793926522451
    vertex 186.9659646210217 78.45962515542402 7.346323373551923
    vertex 186.9659646210068 103.81062710939189 7.346323373550558
  endloop
endfacet
facet normal 6.238700313013018e-13 -1.0 -5.796622621142634e-13
  outer loop
    vertex 188.00150329569982 78.45962515543181 4.169909234591718
    vertex 181.73795109758757 78.45962515541848 4.684337503438532
    vertex 182.26322170172492 78.4596251554187 4.158078013528545
  endloop
endfacet
facet normal 6.238700313013018e-13 -1.0 -5.796622621142634e-13
  outer loop
    vertex 181.73795109758757 78.45962515541848 4.684337503438532
    vertex 188.00150329569982 78.45962515543181 4.169909234591718
    vertex 188.50298838525825 78.45962515542233 4.6706807003966
  endloop
endfacet
facet normal 6.238700313013018e-13 -1.0 -5.796622621142634e-13
  outer loop
    vertex 181.73795109758757 78.45962515541848 4.684337503438532
    vertex 188.50298838525825 78.45962515542233 4.6706807003966
    vertex 185.53926076053853 78.45962515542287 5.7498410168066005
  endloop
endfacet
facet normal 6.238700313013018e-13 -1.0 -5.796622621142634e-13
  outer loop
    vertex 185.53926076053853 78.45962515542287 5.7498410168066005
    vertex 188.50298838525825 78.45962515542233 4.6706807003966
    vertex 185.73861329733634 78.45962515542301 5.807273493272516
  endloop
endfacet
facet normal 6.238700313013018e-13 -1.0 -5.796622621142634e-13
  outer loop
    vertex 185.73861329733634 78.45962515542301 5.807273493272516
    vertex 188.50298838525825 78.45962515542233 4.6706807003966
    vertex 185.9302819500868 78.45962515542303 5.886665248723529
  endloop
endfacet
facet normal 6.238700313013018e-13 -1.0 -5.796622621142634e-13
  outer loop
    vertex 185.9302819500868 78.45962515542303 5.886665248723529
    vertex 188.50298838525825 78.45962515542233 4.6706807003966
    vertex 186.11185637427263 78.45962515542313 5.987017885770712
  endloop
endfacet
facet normal 6.238700313013018e-13 -1.0 -5.796622621142634e-13
  outer loop
    vertex 186.11185637427263 78.45962515542313 5.987017885770712
    vertex 188.50298838525825 78.45962515542233 4.6706807003966
    vertex 186.281053166158 78.45962515542328 6.107069411777128
  endloop
endfacet
facet normal 6.238700313013018e-13 -1.0 -5.796622621142634e-13
  outer loop
    vertex 186.281053166158 78.45962515542328 6.107069411777128
    vertex 188.50298838525825 78.45962515542233 4.6706807003966
    vertex 186.4357445779145 78.45962515542345 6.245310109147846
  endloop
endfacet
facet normal 6.238700313013018e-13 -1.0 -5.796622621142634e-13
  outer loop
    vertex 186.4357445779145 78.45962515542345 6.245310109147846
    vertex 188.50298838525825 78.45962515542233 4.6706807003966
    vertex 186.57398527528505 78.45962515542355 6.400001520904366
  endloop
endfacet
facet normal 6.238700313013018e-13 -1.0 -5.796622621142634e-13
  outer loop
    vertex 186.57398527528505 78.45962515542355 6.400001520904366
    vertex 188.50298838525825 78.45962515542233 4.6706807003966
    vertex 186.69403680129156 78.4596251554237 6.569198312789655
  endloop
endfacet
facet normal 6.238700313013018e-13 -1.0 -5.796622621142634e-13
  outer loop
    vertex 186.69403680129156 78.4596251554237 6.569198312789655
    vertex 188.50298838525825 78.45962515542233 4.6706807003966
    vertex 186.79438943833864 78.45962515542378 6.750772736975581
  endloop
endfacet
facet normal 6.238700313013018e-13 -1.0 -5.796622621142634e-13
  outer loop
    vertex 186.79438943833864 78.45962515542378 6.750772736975581
    vertex 188.50298838525825 78.45962515542233 4.6706807003966
    vertex 188.50564035616813 78.45962515541454 10.427616163107864
  endloop
endfacet
facet normal 6.238700313013018e-13 -1.0 -5.796622621142634e-13
  outer loop
    vertex 181.73795109758757 78.45962515541848 4.684337503438532
    vertex 185.53926076053853 78.45962515542287 5.7498410168066005
    vertex 185.3347313135104 78.45962515542269 5.715090066040501
  endloop
endfacet
facet normal 6.238700313013018e-13 -1.0 -5.796622621142634e-13
  outer loop
    vertex 181.73795109758757 78.45962515541848 4.684337503438532
    vertex 185.3347313135104 78.45962515542269 5.715090066040501
    vertex 185.12759703271917 78.45962515542256 5.7034576543430155
  endloop
endfacet
facet normal 6.238700313013018e-13 -1.0 -5.796622621142634e-13
  outer loop
    vertex 186.79438943833864 78.45962515542378 6.750772736975581
    vertex 188.50564035616813 78.45962515541454 10.427616163107864
    vertex 186.8737811937897 78.4596251554239 6.942441389725988
  endloop
endfacet
facet normal 6.238700313013018e-13 -1.0 -5.796622621142634e-13
  outer loop
    vertex 186.8737811937897 78.4596251554239 6.942441389725988
    vertex 188.50564035616813 78.45962515541454 10.427616163107864
    vertex 186.93121367025566 78.45962515542394 7.141793926523855
  endloop
endfacet
facet normal 6.238700313013018e-13 -1.0 -5.796622621142634e-13
  outer loop
    vertex 186.93121367025566 78.45962515542394 7.141793926523855
    vertex 188.50564035616813 78.45962515541454 10.427616163107864
    vertex 186.9659646210217 78.45962515542402 7.346323373551923
  endloop
endfacet
facet normal 6.238700313013018e-13 -1.0 -5.796622621142634e-13
  outer loop
    vertex 186.9659646210217 78.45962515542402 7.346323373551923
    vertex 188.50564035616813 78.45962515541454 10.427616163107864
    vertex 186.97759703271942 78.45962515542413 7.553457654342996
  endloop
endfacet
facet normal 6.238700313013018e-13 -1.0 -5.796622621142634e-13
  outer loop
    vertex 186.97759703271942 78.45962515542413 7.553457654342996
    vertex 188.50564035616813 78.45962515541454 10.427616163107864
    vertex 186.96596462102173 78.45962515542422 7.760591935134105
  endloop
endfacet
facet normal 6.238700313013018e-13 -1.0 -5.796622621142634e-13
  outer loop
    vertex 186.96596462102173 78.45962515542422 7.760591935134105
    vertex 188.50564035616813 78.45962515541454 10.427616163107864
    vertex 186.93121367025572 78.45962515542426 7.965121382162159
  endloop
endfacet
facet normal 6.238700313013018e-13 -1.0 -5.796622621142634e-13
  outer loop
    vertex 186.93121367025572 78.45962515542426 7.965121382162159
    vertex 188.50564035616813 78.45962515541454 10.427616163107864
    vertex 186.87378119378968 78.45962515542432 8.164473918960088
  endloop
endfacet
facet normal 6.238700313013018e-13 -1.0 -5.796622621142634e-13
  outer loop
    vertex 186.87378119378968 78.45962515542432 8.164473918960088
    vertex 188.50564035616813 78.45962515541454 10.427616163107864
    vertex 186.79438943833875 78.45962515542428 8.356142571710478
  endloop
endfacet
facet normal 6.238700313013018e-13 -1.0 -5.796622621142634e-13
  outer loop
    vertex 186.79438943833875 78.45962515542428 8.356142571710478
    vertex 188.50564035616813 78.45962515541454 10.427616163107864
    vertex 186.6940368012916 78.45962515542429 8.537716995896416
  endloop
endfacet
facet normal 6.238700313013018e-13 -1.0 -5.796622621142634e-13
  outer loop
    vertex 186.6940368012916 78.45962515542429 8.537716995896416
    vertex 188.50564035616813 78.45962515541454 10.427616163107864
    vertex 186.57398527528508 78.45962515542428 8.70691378778167
  endloop
endfacet
facet normal 6.238700313013018e-13 -1.0 -5.796622621142634e-13
  outer loop
    vertex 186.57398527528508 78.45962515542428 8.70691378778167
    vertex 188.50564035616813 78.45962515541454 10.427616163107864
    vertex 186.4357445779144 78.45962515542428 8.861605199538168
  endloop
endfacet
facet normal 6.238700313013018e-13 -1.0 -5.796622621142634e-13
  outer loop
    vertex 186.4357445779144 78.45962515542428 8.861605199538168
    vertex 188.50564035616813 78.45962515541454 10.427616163107864
    vertex 186.2810531661578 78.45962515542416 8.9998458969089
  endloop
endfacet
facet normal 6.238700313013018e-13 -1.0 -5.796622621142634e-13
  outer loop
    vertex 186.2810531661578 78.45962515542416 8.9998458969089
    vertex 188.50564035616813 78.45962515541454 10.427616163107864
    vertex 186.11185637427263 78.45962515542408 9.119897422915285
  endloop
endfacet
facet normal 6.238700313013018e-13 -1.0 -5.796622621142634e-13
  outer loop
    vertex 186.11185637427263 78.45962515542408 9.119897422915285
    vertex 188.50564035616813 78.45962515541454 10.427616163107864
    vertex 185.93028195008677 78.45962515542404 9.220250059962474
  endloop
endfacet
facet normal 6.238700313013018e-13 -1.0 -5.796622621142634e-13
  outer loop
    vertex 185.93028195008677 78.45962515542404 9.220250059962474
    vertex 188.50564035616813 78.45962515541454 10.427616163107864
    vertex 185.7386132973364 78.45962515542388 9.299641815413464
  endloop
endfacet
facet normal 6.238700313013018e-13 -1.0 -5.796622621142634e-13
  outer loop
    vertex 185.7386132973364 78.45962515542388 9.299641815413464
    vertex 188.50564035616813 78.45962515541454 10.427616163107864
    vertex 185.53926076053833 78.45962515542384 9.357074291879435
  endloop
endfacet
facet normal 6.238700313013018e-13 -1.0 -5.796622621142634e-13
  outer loop
    vertex 185.53926076053833 78.45962515542384 9.357074291879435
    vertex 188.50564035616813 78.45962515541454 10.427616163107864
    vertex 185.33473131351036 78.45962515542368 9.391825242645515
  endloop
endfacet
facet normal 6.238700313013018e-13 -1.0 -5.796622621142634e-13
  outer loop
    vertex 185.33473131351036 78.45962515542368 9.391825242645515
    vertex 188.50564035616813 78.45962515541454 10.427616163107864
    vertex 185.1275970327193 78.45962515542355 9.403457654343011
  endloop
endfacet
facet normal 6.238700313013018e-13 -1.0 -5.796622621142634e-13
  outer loop
    vertex 185.1275970327193 78.45962515542355 9.403457654343011
    vertex 188.50564035616813 78.45962515541454 10.427616163107864
    vertex 181.72622684062114 78.45962515541889 10.370740250318452
  endloop
endfacet
facet normal 6.238700313013018e-13 -1.0 -5.796622621142634e-13
  outer loop
    vertex 181.72622684062114 78.45962515541889 10.370740250318452
    vertex 188.50564035616813 78.45962515541454 10.427616163107864
    vertex 182.2590958691563 78.45962515541935 10.903609278853494
  endloop
endfacet
facet normal 6.238700313013018e-13 -1.0 -5.796622621142634e-13
  outer loop
    vertex 182.2590958691563 78.45962515541935 10.903609278853494
    vertex 188.50564035616813 78.45962515541454 10.427616163107864
    vertex 188.0050245602582 78.45962515542409 10.928849056116755
  endloop
endfacet
facet normal 6.238700313013018e-13 -1.0 -5.796622621142634e-13
  outer loop
    vertex 181.73795109758757 78.45962515541848 4.684337503438532
    vertex 183.46080462709972 78.45962515542179 6.750772736975535
    vertex 181.72622684062114 78.45962515541889 10.370740250318452
  endloop
endfacet
facet normal 6.238700313013018e-13 -1.0 -5.796622621142634e-13
  outer loop
    vertex 183.46080462709972 78.45962515542179 6.750772736975535
    vertex 181.73795109758757 78.45962515541848 4.684337503438532
    vertex 183.56115726414686 78.45962515542185 6.569198312789635
  endloop
endfacet
facet normal 6.238700313013018e-13 -1.0 -5.796622621142634e-13
  outer loop
    vertex 183.56115726414686 78.45962515542185 6.569198312789635
    vertex 181.73795109758757 78.45962515541848 4.684337503438532
    vertex 183.68120879015333 78.45962515542192 6.400001520904366
  endloop
endfacet
facet normal 6.238700313013018e-13 -1.0 -5.796622621142634e-13
  outer loop
    vertex 183.68120879015333 78.45962515542192 6.400001520904366
    vertex 181.73795109758757 78.45962515541848 4.684337503438532
    vertex 183.81944948752422 78.45962515542192 6.245310109147849
  endloop
endfacet
facet normal 6.238700313013018e-13 -1.0 -5.796622621142634e-13
  outer loop
    vertex 183.81944948752422 78.45962515542192 6.245310109147849
    vertex 181.73795109758757 78.45962515541848 4.684337503438532
    vertex 183.97414089928063 78.459625155422 6.1070694117771165
  endloop
endfacet
facet normal 6.238700313013018e-13 -1.0 -5.796622621142634e-13
  outer loop
    vertex 183.97414089928063 78.459625155422 6.1070694117771165
    vertex 181.73795109758757 78.45962515541848 4.684337503438532
    vertex 184.14333769116595 78.45962515542203 5.987017885770653
  endloop
endfacet
facet normal 6.238700313013018e-13 -1.0 -5.796622621142634e-13
  outer loop
    vertex 184.14333769116595 78.45962515542203 5.987017885770653
    vertex 181.73795109758757 78.45962515541848 4.684337503438532
    vertex 184.32491211535176 78.45962515542209 5.886665248723512
  endloop
endfacet
facet normal 6.238700313013018e-13 -1.0 -5.796622621142634e-13
  outer loop
    vertex 184.32491211535176 78.45962515542209 5.886665248723512
    vertex 181.73795109758757 78.45962515541848 4.684337503438532
    vertex 184.51658076810227 78.45962515542207 5.807273493272479
  endloop
endfacet
facet normal 6.238700313013018e-13 -1.0 -5.796622621142634e-13
  outer loop
    vertex 184.51658076810227 78.45962515542207 5.807273493272479
    vertex 181.73795109758757 78.45962515541848 4.684337503438532
    vertex 184.7159333049001 78.45962515542227 5.7498410168066005
  endloop
endfacet
facet normal 6.238700313013018e-13 -1.0 -5.796622621142634e-13
  outer loop
    vertex 184.7159333049001 78.45962515542227 5.7498410168066005
    vertex 181.73795109758757 78.45962515541848 4.684337503438532
    vertex 184.92046275192814 78.45962515542242 5.715090066040504
  endloop
endfacet
facet normal 6.238700313013018e-13 -1.0 -5.796622621142634e-13
  outer loop
    vertex 184.92046275192814 78.45962515542242 5.715090066040504
    vertex 181.73795109758757 78.45962515541848 4.684337503438532
    vertex 185.12759703271917 78.45962515542256 5.7034576543430155
  endloop
endfacet
facet normal 6.238700313013018e-13 -1.0 -5.796622621142634e-13
  outer loop
    vertex 181.72622684062114 78.45962515541889 10.370740250318452
    vertex 183.46080462709972 78.45962515542179 6.750772736975535
    vertex 183.38141287164873 78.45962515542182 6.942441389725918
  endloop
endfacet
facet normal 6.238700313013018e-13 -1.0 -5.796622621142634e-13
  outer loop
    vertex 181.72622684062114 78.45962515541889 10.370740250318452
    vertex 183.38141287164873 78.45962515542182 6.942441389725918
    vertex 183.32398039518282 78.45962515542182 7.14179392652377
  endloop
endfacet
facet normal 6.238700313013018e-13 -1.0 -5.796622621142634e-13
  outer loop
    vertex 181.72622684062114 78.45962515541889 10.370740250318452
    vertex 183.32398039518282 78.45962515542182 7.14179392652377
    vertex 183.2892294444168 78.4596251554219 7.346323373551867
  endloop
endfacet
facet normal 6.238700313013018e-13 -1.0 -5.796622621142634e-13
  outer loop
    vertex 181.72622684062114 78.45962515541889 10.370740250318452
    vertex 183.2892294444168 78.4596251554219 7.346323373551867
    vertex 183.27759703271929 78.45962515542197 7.553457654342987
  endloop
endfacet
facet normal 6.238700313013018e-13 -1.0 -5.796622621142634e-13
  outer loop
    vertex 181.72622684062114 78.45962515541889 10.370740250318452
    vertex 183.27759703271929 78.45962515542197 7.553457654342987
    vertex 183.2892294444169 78.45962515542212 7.760591935134079
  endloop
endfacet
facet normal 6.238700313013018e-13 -1.0 -5.796622621142634e-13
  outer loop
    vertex 181.72622684062114 78.45962515541889 10.370740250318452
    vertex 183.2892294444169 78.45962515542212 7.760591935134079
    vertex 183.3239803951829 78.45962515542217 7.965121382162142
  endloop
endfacet
facet normal 6.238700313013018e-13 -1.0 -5.796622621142634e-13
  outer loop
    vertex 181.72622684062114 78.45962515541889 10.370740250318452
    vertex 183.3239803951829 78.45962515542217 7.965121382162142
    vertex 183.3814128716487 78.45962515542229 8.164473918960082
  endloop
endfacet
facet normal 6.238700313013018e-13 -1.0 -5.796622621142634e-13
  outer loop
    vertex 181.72622684062114 78.45962515541889 10.370740250318452
    vertex 183.3814128716487 78.45962515542229 8.164473918960082
    vertex 183.46080462709966 78.45962515542234 8.356142571710498
  endloop
endfacet
facet normal 6.238700313013018e-13 -1.0 -5.796622621142634e-13
  outer loop
    vertex 181.72622684062114 78.45962515541889 10.370740250318452
    vertex 183.46080462709966 78.45962515542234 8.356142571710498
    vertex 183.5611572641468 78.4596251554225 8.537716995896384
  endloop
endfacet
facet normal 6.238700313013018e-13 -1.0 -5.796622621142634e-13
  outer loop
    vertex 181.72622684062114 78.45962515541889 10.370740250318452
    vertex 183.5611572641468 78.4596251554225 8.537716995896384
    vertex 183.68120879015333 78.45962515542253 8.706913787781648
  endloop
endfacet
facet normal 6.238700313013018e-13 -1.0 -5.796622621142634e-13
  outer loop
    vertex 181.72622684062114 78.45962515541889 10.370740250318452
    vertex 183.68120879015333 78.45962515542253 8.706913787781648
    vertex 183.81944948752417 78.45962515542269 8.861605199538115
  endloop
endfacet
facet normal 6.238700313013018e-13 -1.0 -5.796622621142634e-13
  outer loop
    vertex 181.72622684062114 78.45962515541889 10.370740250318452
    vertex 183.81944948752417 78.45962515542269 8.861605199538115
    vertex 183.9741408992805 78.45962515542274 8.999845896908852
  endloop
endfacet
facet normal 6.238700313013018e-13 -1.0 -5.796622621142634e-13
  outer loop
    vertex 181.72622684062114 78.45962515541889 10.370740250318452
    vertex 183.9741408992805 78.45962515542274 8.999845896908852
    vertex 184.14333769116598 78.4596251554229 9.119897422915313
  endloop
endfacet
facet normal 6.238700313013018e-13 -1.0 -5.796622621142634e-13
  outer loop
    vertex 181.72622684062114 78.45962515541889 10.370740250318452
    vertex 184.14333769116598 78.4596251554229 9.119897422915313
    vertex 184.32491211535168 78.459625155423 9.22025005996247
  endloop
endfacet
facet normal 6.238700313013018e-13 -1.0 -5.796622621142634e-13
  outer loop
    vertex 181.72622684062114 78.45962515541889 10.370740250318452
    vertex 184.32491211535168 78.459625155423 9.22025005996247
    vertex 184.51658076810222 78.45962515542313 9.299641815413473
  endloop
endfacet
facet normal 6.238700313013018e-13 -1.0 -5.796622621142634e-13
  outer loop
    vertex 181.72622684062114 78.45962515541889 10.370740250318452
    vertex 184.51658076810222 78.45962515542313 9.299641815413473
    vertex 184.71593330489995 78.45962515542331 9.357074291879396
  endloop
endfacet
facet normal 6.238700313013018e-13 -1.0 -5.796622621142634e-13
  outer loop
    vertex 181.72622684062114 78.45962515541889 10.370740250318452
    vertex 184.71593330489995 78.45962515542331 9.357074291879396
    vertex 184.92046275192808 78.45962515542344 9.39182524264551
  endloop
endfacet
facet normal 6.238700313013018e-13 -1.0 -5.796622621142634e-13
  outer loop
    vertex 181.72622684062114 78.45962515541889 10.370740250318452
    vertex 184.92046275192808 78.45962515542344 9.39182524264551
    vertex 185.1275970327193 78.45962515542355 9.403457654343011
  endloop
endfacet
facet normal -0.9238795325112812 -6.518608418443666e-13 -0.3826834323651031
  outer loop
    vertex 186.7943894383238 103.81062710939216 8.35614257170913
    vertex 186.87378119378968 78.45962515542432 8.164473918960088
    vertex 186.79438943833875 78.45962515542428 8.356142571710478
  endloop
endfacet
facet normal -0.9238795325112812 -6.518608418443666e-13 -0.3826834323651031
  outer loop
    vertex 186.87378119378968 78.45962515542432 8.164473918960088
    vertex 186.7943894383238 103.81062710939216 8.35614257170913
    vertex 186.87378119377487 103.81062710939221 8.164473918958706
  endloop
endfacet
facet normal -0.9609173219450933 -6.435277199972481e-13 -0.27683551142487106
  outer loop
    vertex 186.87378119378968 78.45962515542432 8.164473918960088
    vertex 186.93121367024082 103.81062710939214 7.965121382160771
    vertex 186.93121367025572 78.45962515542426 7.965121382162159
  endloop
endfacet
facet normal -0.9609173219450933 -6.435277199972481e-13 -0.27683551142487106
  outer loop
    vertex 186.93121367024082 103.81062710939214 7.965121382160771
    vertex 186.87378119378968 78.45962515542432 8.164473918960088
    vertex 186.87378119377487 103.81062710939221 8.164473918958706
  endloop
endfacet
facet normal -0.8752234219087494 -6.51996435386823e-13 -0.4837188871052481
  outer loop
    vertex 186.6940368012916 78.45962515542429 8.537716995896416
    vertex 186.7943894383238 103.81062710939216 8.35614257170913
    vertex 186.79438943833875 78.45962515542428 8.356142571710478
  endloop
endfacet
facet normal -0.8752234219087494 -6.51996435386823e-13 -0.4837188871052481
  outer loop
    vertex 186.7943894383238 103.81062710939216 8.35614257170913
    vertex 186.6940368012916 78.45962515542429 8.537716995896416
    vertex 186.69403680127667 103.81062710939219 8.537716995895003
  endloop
endfacet
facet normal -0.9984268150178179 -6.027898375892589e-13 -0.05607044723716798
  outer loop
    vertex 186.96596462102173 78.45962515542422 7.760591935134105
    vertex 186.97759703270438 103.810627109392 7.553457654341642
    vertex 186.97759703271942 78.45962515542413 7.553457654342996
  endloop
endfacet
facet normal -0.9984268150178179 -6.027898375892589e-13 -0.05607044723716798
  outer loop
    vertex 186.97759703270438 103.810627109392 7.553457654341642
    vertex 186.96596462102173 78.45962515542422 7.760591935134105
    vertex 186.96596462100692 103.8106271093921 7.760591935132768
  endloop
endfacet
facet normal -0.9984268150178164 -5.708973795363533e-13 0.056070447237195495
  outer loop
    vertex 186.97759703271942 78.45962515542413 7.553457654342996
    vertex 186.9659646210068 103.81062710939189 7.346323373550558
    vertex 186.9659646210217 78.45962515542402 7.346323373551923
  endloop
endfacet
facet normal -0.9984268150178164 -5.708973795363533e-13 0.056070447237195495
  outer loop
    vertex 186.9659646210068 103.81062710939189 7.346323373550558
    vertex 186.97759703271942 78.45962515542413 7.553457654342996
    vertex 186.97759703270438 103.810627109392 7.553457654341642
  endloop
endfacet
facet normal 0.7075421953140384 1.9867506839616801e-13 0.7066710987794754
  outer loop
    vertex 188.50564035615898 103.8106271093797 10.427616163111553
    vertex 188.0050245602582 78.45962515542409 10.928849056116755
    vertex 188.50564035616813 78.45962515541454 10.427616163107864
  endloop
endfacet
facet normal 0.7075421953140384 1.9867506839616801e-13 0.7066710987794754
  outer loop
    vertex 188.0050245602582 78.45962515542409 10.928849056116755
    vertex 188.50564035615898 103.8106271093797 10.427616163111553
    vertex 188.00502456024913 103.81062710938923 10.928849056120335
  endloop
endfacet
facet normal -0.9858710185182321 -6.271018636876841e-13 -0.16750622330475862
  outer loop
    vertex 186.93121367025572 78.45962515542426 7.965121382162159
    vertex 186.96596462100692 103.8106271093921 7.760591935132768
    vertex 186.96596462102173 78.45962515542422 7.760591935134105
  endloop
endfacet
facet normal -0.9858710185182321 -6.271018636876841e-13 -0.16750622330475862
  outer loop
    vertex 186.96596462100692 103.8106271093921 7.760591935132768
    vertex 186.93121367025572 78.45962515542426 7.965121382162159
    vertex 186.93121367024082 103.81062710939214 7.965121382160771
  endloop
endfacet
endsolid Matchlock
